<?xml version="1.0" encoding="utf-8"?>
<!-- Generator: Adobe Illustrator 22.1.0, SVG Export Plug-In . SVG Version: 6.00 Build 0)  -->
<svg version="1.1" id="Camada_1" xmlns="http://www.w3.org/2000/svg" xmlns:xlink="http://www.w3.org/1999/xlink" x="0px" y="0px"
	 viewBox="0 0 1366 768" style="enable-background:new 0 0 1366 768;" xml:space="preserve">
<style type="text/css">
	.st0{fill:none;stroke:#000000;stroke-width:3.0809;stroke-miterlimit:10;}
	.st1{fill:none;stroke:#1E006B;stroke-width:3.0809;stroke-miterlimit:10;}
	.st2{fill:none;stroke:#000000;stroke-width:5.1348;stroke-miterlimit:10;}
	.st3{fill:none;stroke:#000000;stroke-width:2.0539;stroke-miterlimit:10;}
</style>
<g>
	<circle class="st0" cx="683" cy="455" r="240"/>
	<circle class="st0" cx="683" cy="455" r="211.8"/>
	
		<rect x="649.8" y="422.9" transform="matrix(0.7071 -0.7071 0.7071 0.7071 -122.0439 615.4988)" class="st1" width="64.4" height="64.4"/>
	<circle class="st2" cx="682.4" cy="454.5" r="59.8"/>
	<path class="st3" d="M520.3,322c-8.1,29-34.3,148.9,91.3,148.2c0,0,10.3-0.5,11-12.5c0.6-12-1.7-22.2,15.4-43.3
		c0,0-13.6-45.8,2.3-80.7s40.7-55.7,40.7-55.7s15.9-15.8-3.3-27.6c-18.7-11.6-95.6,0.5-152,63.1C522.8,316.6,521.6,317.9,520.3,322z
		"/>
	<path class="st3" d="M815.6,292.9c-29-8.1-148.9-34.3-148.2,91.3c0,0,0.5,10.3,12.5,11c12,0.7,22.2-1.7,43.3,15.4
		c0,0,45.8-13.6,80.7,2.3c34.9,15.8,55.7,40.7,55.7,40.7s15.8,15.9,27.6-3.3c11.6-18.7-0.5-95.6-63.1-152
		C821,295.3,819.7,294.1,815.6,292.9z"/>
	<path class="st3" d="M840.1,589.8c9-28.7,39-147.8-86.5-151.1c0,0-10.3,0.2-11.3,12.2c-1,12,1,22.2-16.8,42.8c0,0,12,46.2-4.8,80.6
		c-16.9,34.4-42.4,54.3-42.4,54.3s-16.3,15.3,2.4,27.7c18.3,12.1,95.6,2.6,153.9-58.1C837.6,595.3,838.8,593.9,840.1,589.8z"/>
	<path class="st3" d="M543.3,612.3c28.7,9.2,147.6,39.7,151.5-85.8c0,0-0.2-10.3-12.1-11.4c-11.9-1.1-22.2,0.9-42.7-17
		c0,0-46.2,11.8-80.6-5.2c-34.4-17-54.1-42.6-54.1-42.6s-15.2-16.4-27.7,2.3c-12.2,18.3-3,95.6,57.4,154.2
		C538,609.7,539.2,611,543.3,612.3z"/>
</g>
</svg>
